<svg xmlns="http://www.w3.org/2000/svg" width="430.956" height="66.783" viewBox="0 0 430.956 66.783">
  <path id="Path_2" data-name="Path 2" d="M139.2-47.242c.158.4.553.869.948.474.316-.316.158-.869,0-1.185-.474-.632-2.054-.869-2.923-1.027a56.027,56.027,0,0,0-7.268-.4c-10.191-.237-20.461.158-30.573.553S79.158-47.8,69.125-47.242c-9.875.553-19.75,1.58-29.467,3a239.521,239.521,0,0,0-29.783,6A113.864,113.864,0,0,0-4.266-33.575,43.358,43.358,0,0,0-10.9-30.257c-1.817,1.106-3.871,2.607-4.424,4.819-.474,2.291,1.975,3.95,3.713,4.74a31.4,31.4,0,0,0,7.031,2.133,132.852,132.852,0,0,0,14.773,2.054c9.875,1.106,19.908,1.58,29.783,3.318a43.286,43.286,0,0,1,7.031,1.659c1.9.632,4.5,1.738,4.582,3.95a2.658,2.658,0,0,1-.316,1.738,8.456,8.456,0,0,1-1.106,1.264c-.869.948-1.659,1.9-2.528,2.844C46.057.079,44.4,1.975,42.818,3.871c-.869.948-3,3.476-3.634,4.345a.63.63,0,0,0,.711.869c.474-.079.948-.79,1.264-1.106l1.185-1.185c.948-.948,1.9-1.817,2.765-2.765a64.555,64.555,0,0,0,4.977-5.451A15.715,15.715,0,0,0,51.9-4.266a9.308,9.308,0,0,1,.869-1.5c.4-.474.79-.948,1.264-1.422C60.751-14.773,67.545-22.2,74.5-29.625,77.973-33.338,81.528-36.972,85-40.764a15.164,15.164,0,0,0,1.106-1.185c.237-.316.316-.632,0-.869-.474-.4-.79.079-1.343.632-.474.4-4.74,4.977-6.478,6.794-6.952,7.426-13.9,15.01-20.777,22.515-.869.948-4.74,5.214-4.74,5.214a4.63,4.63,0,0,0-1.343-2.765,8.518,8.518,0,0,0-2.686-1.659,27.424,27.424,0,0,0-7.031-1.975c-2.449-.474-4.9-.869-7.347-1.106-9.8-1.264-19.671-1.817-29.467-3.081C0-18.881-5.135-19.434-9.717-21.172c-1.659-.632-5.056-1.975-4.424-4.266.553-1.975,3.871-3.95,4.9-4.5a74.247,74.247,0,0,1,13.825-5.53c4.9-1.58,9.8-2.844,14.773-3.95A289.2,289.2,0,0,1,48.98-44.24c9.875-1.185,19.829-1.817,29.783-2.449,10.112-.553,20.145-1.106,30.257-1.343,10.112-.158,21.251-.4,26.7.079A16.964,16.964,0,0,1,139.2-47.242ZM82.713-22.989a25.526,25.526,0,0,0,3.239-1.975c2.686-1.975,9.954-7.584,8.769-11.376-.316-1.027-1.422-2.37-4.582-1.817-3.634.632-7.742,2.528-9.48,6.083a8.6,8.6,0,0,0-.553,5.609,14.082,14.082,0,0,0,1.817,4.345c.395.79.869,1.58,1.264,2.449,1.185,3-1.659,5.846-3.555,7.979-2.212,2.449-4.345,4.977-6.557,7.426C71.969-3,70.231-1.106,69.994.237c-.158.79.158,1.5,1.106,1.422a10.84,10.84,0,0,0,4.5-1.9c1.738-1.185,3.4-2.37,5.135-3.555,8.295-5.925,16.511-12.008,24.727-18.17.869-.632,1.817-1.343.474-1.738,0,0-.869.553-1.027.711-4.424,3.239-8.848,6.557-13.193,9.8C87.453-10.112,83.266-7.11,79-4.029,77.5-2.923,76-1.9,74.418-.869A9.6,9.6,0,0,1,71.1.553c0-.948,3-4.108,3.871-5.214C77.1-7.11,79.237-9.48,81.37-11.85c2.054-2.528,4.582-5.293,2.607-8.848A11.025,11.025,0,0,0,82.713-22.989ZM91.4-37.13c1.9-.079,2.449,1.106,2.212,2.054-.711,2.449-3,4.5-4.9,6.32a33.743,33.743,0,0,1-6.478,4.74,9.757,9.757,0,0,1-.948-6.478c.869-2.923,3.634-4.74,6.636-5.846A10.793,10.793,0,0,1,91.4-37.13Zm8.611,22.436a3.586,3.586,0,0,1,.474-1.106l1.659-2.37a60.9,60.9,0,0,1,4.977-5.135c.237-.237.553-.474.79-.711a.528.528,0,0,0,0-.79c-.395-.395-.79.079-1.106.316a54.365,54.365,0,0,0-4.345,4.187,25.707,25.707,0,0,0-2.844,3.713,5.018,5.018,0,0,0-.711,1.659,1.108,1.108,0,0,0,1.106,1.422c1.264,0,3.16-1.106,4.108-1.58l8.769-4.977c2.607-1.422,3.634-2.133,4.345-2.528.237-.079.632-.948-.4-1.106,0,0-2.686,1.58-5.293,3.081-2.844,1.58-5.609,3.16-8.374,4.661A9.449,9.449,0,0,1,100.014-14.694Zm12.245-16.669a.61.61,0,0,0-.474.869.5.5,0,0,0,.632.237.558.558,0,0,0,.474-.632A.479.479,0,0,0,112.259-31.363Zm5.214,8.69c1.027-1.185,2.212-2.291,3.555-3.713a.618.618,0,0,0,0-.869c-.158-.158-.395-.237-.869.158-1.106,1.106-2.054,2.133-3.239,3.239-2.607,2.528-5.767,5.451-8.058,7.979a1.845,1.845,0,0,1-.948.79c-.948.158-4.977.474-4.977,1.975a.954.954,0,0,0,.869,1.027c.474.079.948.079,1.343.158L91.877,2.291C90.85,3.4,89.981,4.5,89.033,5.609c-.237.316-.79.948-.158,1.422q.355.237.948-.474c1.027-1.185,1.738-2.212,2.844-3.4,4.5-4.977,9.164-9.875,13.825-14.773a2.655,2.655,0,0,1,1.264-.79,33.766,33.766,0,0,0,6.636-2.528,2.318,2.318,0,0,1,.79-.237,73.871,73.871,0,0,0,11.534-3.318c3.871-1.343,7.584-2.923,11.455-4.108.316-.079.553-.948-.4-1.106-3.95,1.264-7.742,2.765-11.771,4.187-2.212.79-5.451,1.738-7.031,2.212,4.345-2.37,6.478-4.266,7.268-5.767a1.466,1.466,0,0,0-1.185-2.291C122.45-25.675,119.764-24.016,117.473-22.673Zm-7.189,7.189c3-3,9.48-8.374,14.141-8.769.869-.079,1.027.237.869.553a5.856,5.856,0,0,1-1.9,2.054,45.374,45.374,0,0,1-5.214,3.4c-1.027.632-2.133,1.106-3.16,1.738a5.166,5.166,0,0,1-1.817.474C112.259-15.8,110.363-15.484,110.284-15.484Zm-5.846,2.37a9.3,9.3,0,0,1,2.37-.553c-.237.237-.474.474-.553.474A12.816,12.816,0,0,1,104.438-13.114Zm46.373-24.648c-.158.237-2.449,2.607-3.4,3.634-7.347,7.821-14.536,15.721-21.646,23.7a150.526,150.526,0,0,0-9.8,11.692c-.237.237-.474.79-.079,1.027s.632-.079.869-.316c2.054-2.686,4.266-5.214,6.478-7.742,5.846-6.715,11.85-13.272,17.854-19.829,3.634-3.95,9.875-10.507,11.455-12.166,5.214.079,11.139.158,16.353.474a28.386,28.386,0,0,1,3.634.4.418.418,0,0,0,.632-.237.543.543,0,0,0-.237-.711,17.814,17.814,0,0,0-4.108-.632c-2.686-.079-14.931-.4-15.168-.474.158-.158,1.5-1.58,2.133-2.212,1.659-1.659,3.4-3.318,5.056-5.056,1.027-1.027,1.975-2.054,2.923-3.081a.479.479,0,0,0,0-.79c-.158-.237-.474-.237-.79,0-.474.553-.869.948-1.975,2.133L152-38.947h-7.268c-4.424.079-8.848.079-13.193.158h-5.372c-.474,0-.632.237-.632.474,0,.158,0,.553.632.553,1.343.079,7.9.079,9.8,0Zm-9.322,23.068a3.587,3.587,0,0,1,.474-1.106l1.659-2.37a60.9,60.9,0,0,1,4.977-5.135c.237-.237.553-.474.79-.711a.528.528,0,0,0,0-.79c-.4-.395-.79.079-1.106.316a54.366,54.366,0,0,0-4.345,4.187,25.707,25.707,0,0,0-2.844,3.713,5.019,5.019,0,0,0-.711,1.659,1.108,1.108,0,0,0,1.106,1.422c1.264,0,3.16-1.106,4.108-1.58l8.769-4.977c2.607-1.422,3.634-2.133,4.345-2.528.237-.079.632-.948-.395-1.106,0,0-2.686,1.58-5.293,3.081-2.844,1.58-5.609,3.16-8.374,4.661A9.449,9.449,0,0,1,141.489-14.694Zm12.245-16.669a.61.61,0,0,0-.474.869.5.5,0,0,0,.632.237.558.558,0,0,0,.474-.632A.479.479,0,0,0,153.734-31.363ZM287.4-49.217a5.719,5.719,0,0,1-.869,2.449,25.736,25.736,0,0,1-1.9,3.16c-1.264,1.975-2.607,4.029-3.95,6-2.291,3.476-4.661,7.031-6.794,10.665-1.58,2.607-3.239,5.293-4.74,7.979-1.58,2.607-3,5.135-4.5,7.742C263.386-9.085,262.2-6.873,261.1-4.74c-1.738,3.16-3.4,6.32-4.977,9.559a26.982,26.982,0,0,0-2.212,6,2.135,2.135,0,0,0,.316,1.817.528.528,0,0,0,.869-.237c.158-.316-.158-.711-.079-1.027a16.723,16.723,0,0,1,1.343-4.266c.948-1.975,1.9-4.029,2.923-5.925,1.817-3.634,3.713-7.11,5.767-10.665,2.212-4.029,4.582-8.137,6.952-12.087,2.844-4.9,5.846-9.638,9.006-14.378,1.5-2.291,3.081-4.661,4.582-7.031,1.185-1.738,2.923-4.582,2.923-6.32a1.171,1.171,0,0,0-.869-1.027c-1.185-.316-2.923.4-3.555.632a40.464,40.464,0,0,0-4.9,2.449c-3,1.659-6,3.4-8.927,5.293-3.634,2.212-7.189,4.582-10.744,6.952-2.844,1.975-5.609,3.95-8.374,6-3.081,2.212-6.162,4.582-9.164,6.952-3.318,2.607-6.636,5.293-9.875,7.9-1.58,1.343-3.239,2.686-4.9,4.029A11.929,11.929,0,0,1,225.15-8.69c.316-.553.711-1.264,1.027-1.738.948-1.58,2.054-3.081,3.16-4.582,1.422-1.817,2.923-3.634,4.345-5.451,2.212-2.686,4.5-5.372,6.794-8.058,1.5-1.738,3.081-3.476,4.582-5.214,1.817-1.975,3.713-3.95,5.53-6,1.738-1.9,5.293-5.372,6-7.347a.762.762,0,0,0-.79-.948,6.923,6.923,0,0,0-2.291.711c-5.609,2.765-10.744,5.609-16.2,8.769-3.16,1.817-6.241,3.713-9.4,5.609-3.4,2.133-6.794,4.187-10.112,6.4-2.607,1.738-5.135,3.476-7.742,5.214-2.844,1.975-5.688,4.029-8.532,6.083l-8.295,6.162c-1.106.79-1.5,1.106-2.765,1.975a13.173,13.173,0,0,1-1.817,1.027,20.222,20.222,0,0,1,1.264-1.975c1.106-1.659,2.37-3.16,3.634-4.74q2.252-2.726,4.74-5.451c2.291-2.607,4.582-5.135,6.952-7.742,1.738-1.975,3.555-3.871,5.293-5.846,1.817-1.975,3.634-3.95,5.372-5.925,1.659-1.817,3.318-3.634,4.9-5.53,1.422-1.817,3.95-4.74,3.792-6.952a2.415,2.415,0,0,0-1.817-2.133c-2.37-.632-5.767-.158-8.769.4-1.659.316-3.318.632-4.9,1.027-3.081.79-6.162,1.58-9.164,2.449-2.923.869-5.688,1.738-8.532,2.765-4.029,1.422-8.058,3-12.087,4.661-3.16,1.343-6.32,2.765-9.4,4.266-2.449,1.185-4.977,2.449-7.426,3.713-.316.158-1.9.79-1.264,1.422.316.474.79,0,1.185-.158,3.713-1.9,7.426-3.792,11.455-5.609l7.11-3.081c3.95-1.58,7.9-3.16,11.929-4.5,2.607-.869,5.135-1.738,7.742-2.449,4.424-1.264,8.848-2.449,13.351-3.318,2.686-.632,7.268-1.264,8.927-.237a1.2,1.2,0,0,1,.553,1.106c0,1.027-.79,2.133-1.817,3.634-1.185,1.58-2.37,3-3.713,4.5-1.343,1.58-2.765,3.081-4.187,4.661-1.5,1.738-3,3.4-4.582,5.056-1.738,1.975-3.555,3.871-5.293,5.846-1.9,2.054-3.713,4.108-5.609,6.241-1.659,1.817-3.239,3.634-4.819,5.451-1.422,1.738-2.844,3.476-4.108,5.293-.711.869-2.133,3-1.975,3.713a.838.838,0,0,0,.711.711c1.106.158,4.345-2.291,5.846-3.4,2.528-1.817,5.056-3.713,7.584-5.53,3.871-2.844,7.742-5.688,11.771-8.374,3-2.054,6.083-4.108,9.164-6.083l7.347-4.5c3.871-2.37,7.742-4.661,11.692-6.952s12.64-7.031,13.588-6.952a43.71,43.71,0,0,1-3.16,3.634c-1.58,1.817-3.16,3.555-4.819,5.293l-4.029,4.5c-2.37,2.607-4.661,5.293-6.952,7.979s-4.5,5.372-6.715,8.137c-1.422,1.9-2.844,3.792-4.108,5.767a11.178,11.178,0,0,0-1.58,3.239.735.735,0,0,0,.79.869,1.8,1.8,0,0,0,.869-.237,27.373,27.373,0,0,0,3.871-2.765c2.449-2.054,4.977-4.187,7.505-6.241,3.16-2.607,6.32-5.135,9.638-7.584,4.661-3.555,9.4-7.031,14.3-10.349q4.622-3.2,9.48-6.162c3.239-2.133,6.557-4.108,10.033-6,1.185-.632,2.449-1.264,3.713-1.817C284.637-48.664,286.612-49.454,287.4-49.217Zm2.37,26.7q-1.9,2.252-3.318,4.266a10.087,10.087,0,0,0-1.817,4.029,1.281,1.281,0,0,0,1.422,1.58,6.019,6.019,0,0,0,2.291-.79c.79-.474,1.422-.79,2.133-1.264,3.713-2.37,7.347-4.74,11.06-7.189.632-.395.869-.553,1.106-.711.553-.395.158-.869-.395-1.106,0,0-.632.395-.79.474-2.528,1.659-5.688,3.713-8.216,5.372-1.659,1.106-3.16,2.054-4.9,3.16a6.253,6.253,0,0,1-2.212.948c-.316,0-.395-.079-.395-.395a11.006,11.006,0,0,1,1.264-2.765,25.349,25.349,0,0,1,3.081-4.108c.948-1.027,1.9-1.975,2.844-3l.553-.553a.718.718,0,0,0,0-.79.614.614,0,0,0-.79-.237,8.633,8.633,0,0,0-1.185.632c-2.449,1.5-4.977,3.081-7.584,4.424-.79.395-1.659.79-2.449,1.185a6.662,6.662,0,0,1-1.9.553,4.4,4.4,0,0,1,1.027-1.817A13.086,13.086,0,0,1,285.19-24.1a4.687,4.687,0,0,1,2.054-.474c.316.079.316.158.316.4,0,.395-.316.79.237,1.027.237.158.632-.079.711-.316a2.306,2.306,0,0,0,.158-.711A1.324,1.324,0,0,0,287.8-25.6a4.528,4.528,0,0,0-3.16.474,15.414,15.414,0,0,0-4.9,3.792,5.616,5.616,0,0,0-1.185,2.291,1,1,0,0,0,1.027,1.264c1.422.079,4.029-1.343,4.819-1.738C286.375-20.619,288.508-21.8,289.772-22.515ZM288.508-.553a8.657,8.657,0,0,0,3.555-.395c4.582-1.422,10.981-5.53,16.985-9.638,3.713-2.607,7.347-5.214,10.981-7.821,1.659-1.264,3.713-2.844,5.372-4.108.237-.158.79-.948-.316-1.185,0,0-.711.474-.869.632-1.659,1.264-3.318,2.528-5.056,3.713-4.108,3.081-8.3,6.162-12.561,9.006-3.318,2.212-6.636,4.266-10.112,6.162-2.133,1.027-4.977,2.607-7.347,2.528-.632-.079-.869-.237-.79-.948a7.4,7.4,0,0,1,.316-1.264,21.573,21.573,0,0,1,2.291-4.187c1.659-2.528,3.555-4.9,5.451-7.268,4.266-5.135,8.848-9.954,13.509-14.694,4.187-4.266,8.453-8.374,12.64-12.561,2.923-2.923,5.846-5.846,8.532-8.927.474-.474.948-1.027.632-1.343-.4-.4-.711-.079-1.185.316-3.239,3.318-6.478,6.715-9.717,9.954-4.187,4.187-8.374,8.295-12.482,12.482a198.084,198.084,0,0,0-13.43,14.852,68.035,68.035,0,0,0-5.372,7.189,19.362,19.362,0,0,0-2.054,4.029,5.774,5.774,0,0,0-.316,1.817A1.758,1.758,0,0,0,288.508-.553Zm32.943-17.3c1.817-2.054,6.636-7.505,9.875-10.981,3.4-3.634,6.715-7.347,10.191-10.981,2.765-2.844,5.609-5.688,8.453-8.453.869-.869,1.975-2.054,2.765-2.923a.645.645,0,0,0,0-.948.6.6,0,0,0-.711.079c-.79.79-1.5,1.58-2.291,2.37-4.029,3.871-7.979,7.821-11.771,11.929-5.767,6.241-11.455,12.482-17.143,18.723l-3.555,4.029c-.316.316-.79.869-.395,1.264a.846.846,0,0,0,1.106-.079c.869-.711,1.738-1.422,2.686-2.054a67.235,67.235,0,0,1,7.11-4.5,8.061,8.061,0,0,1,1.738-.711,8.138,8.138,0,0,0-.4,2.449,1.7,1.7,0,0,0,1.817,1.817c1.106.079,3.239-.711,4.819-1.343,3.634-1.422,7.031-2.923,10.665-4.345.632-.237.869-1.027-.079-1.185,0,0-.869.316-1.185.474-3.318,1.343-6.162,2.449-9.559,3.792a20.164,20.164,0,0,1-4.661,1.5c-.4,0-.632-.158-.632-.632,0-.869.316-1.738.4-2.686a.935.935,0,0,0-.948-1.027C327.771-22.2,323.742-19.592,321.451-17.854Zm18.407,3.792a1.149,1.149,0,0,0,1.422,1.343,10.056,10.056,0,0,0,4.108-2.37,17.2,17.2,0,0,0,3.4-3.792,4.015,4.015,0,0,0,.632-2.133c1.5-.237,7.11-1.106,10.191-1.58a.561.561,0,0,0-.158-1.106c-2.212.316-5.53.79-7.821,1.106-1.9.316-2.686.474-3,.316-.474-.237-1.264-.316-1.422.395-.079.316.079.79.79.869.237.079.079.711-.158,1.264a14.873,14.873,0,0,1-1.264,1.817c-1.343,1.5-3.4,3.555-5.372,4.108-.237.079-.237-.079-.237-.237a7.755,7.755,0,0,1,1.027-2.528,34.271,34.271,0,0,1,6.4-7.505,1.727,1.727,0,0,1,.4-.237.48.48,0,0,0,.316-.711c-.4-.711-1.264-.079-1.738.316a42.674,42.674,0,0,0-5.056,5.609C341.359-17.933,339.937-15.958,339.858-14.062Zm32.627-23.7c-.158.237-2.449,2.607-3.4,3.634-7.347,7.821-14.536,15.721-21.646,23.7a150.526,150.526,0,0,0-9.8,11.692c-.237.237-.474.79-.079,1.027s.632-.079.869-.316c2.054-2.686,4.266-5.214,6.478-7.742,5.846-6.715,11.85-13.272,17.854-19.829,3.634-3.95,9.875-10.507,11.455-12.166,5.214.079,11.139.158,16.353.474a28.386,28.386,0,0,1,3.634.4.418.418,0,0,0,.632-.237.542.542,0,0,0-.237-.711,17.814,17.814,0,0,0-4.108-.632c-2.686-.079-14.931-.4-15.168-.474.158-.158,1.5-1.58,2.133-2.212,1.659-1.659,3.4-3.318,5.056-5.056,1.027-1.027,1.975-2.054,2.923-3.081a.479.479,0,0,0,0-.79c-.158-.237-.474-.237-.79,0-.474.553-.869.948-1.975,2.133l-9.006,9.006H366.4c-4.424.079-8.848.079-13.193.158h-5.372c-.474,0-.632.237-.632.474,0,.158,0,.553.632.553,1.343.079,7.9.079,9.8,0Zm-1.817,14.773a25.525,25.525,0,0,0,3.239-1.975c2.686-1.975,9.954-7.584,8.769-11.376-.316-1.027-1.422-2.37-4.582-1.817-3.634.632-7.742,2.528-9.48,6.083a8.6,8.6,0,0,0-.553,5.609,14.082,14.082,0,0,0,1.817,4.345c.395.79.869,1.58,1.264,2.449,1.185,3-1.659,5.846-3.555,7.979-2.212,2.449-4.345,4.977-6.557,7.426-1.106,1.264-2.844,3.16-3.081,4.5-.158.79.158,1.5,1.106,1.422a10.84,10.84,0,0,0,4.5-1.9c1.738-1.185,3.4-2.37,5.135-3.555C376.988-9.717,385.2-15.8,393.42-21.962c.869-.632,1.817-1.343.474-1.738,0,0-.869.553-1.027.711-4.424,3.239-8.848,6.557-13.193,9.8-4.266,3.081-8.453,6.083-12.719,9.164-1.5,1.106-3,2.133-4.582,3.16A9.6,9.6,0,0,1,359.055.553c0-.948,3-4.108,3.871-5.214,2.133-2.449,4.266-4.819,6.4-7.189,2.054-2.528,4.582-5.293,2.607-8.848A11.023,11.023,0,0,0,370.668-22.989Zm8.69-14.141c1.9-.079,2.449,1.106,2.212,2.054-.711,2.449-3,4.5-4.9,6.32a33.743,33.743,0,0,1-6.478,4.74,9.757,9.757,0,0,1-.948-6.478c.869-2.923,3.634-4.74,6.636-5.846A10.793,10.793,0,0,1,379.358-37.13ZM401.4-22.515q-1.9,2.252-3.318,4.266a10.087,10.087,0,0,0-1.817,4.029,1.281,1.281,0,0,0,1.422,1.58,6.019,6.019,0,0,0,2.291-.79c.79-.474,1.422-.79,2.133-1.264,3.713-2.37,7.347-4.74,11.06-7.189.632-.395.869-.553,1.106-.711.553-.395.158-.869-.395-1.106,0,0-.632.395-.79.474-2.528,1.659-5.688,3.713-8.216,5.372-1.659,1.106-3.16,2.054-4.9,3.16a6.253,6.253,0,0,1-2.212.948c-.316,0-.395-.079-.395-.395a11.006,11.006,0,0,1,1.264-2.765,25.349,25.349,0,0,1,3.081-4.108c.948-1.027,1.9-1.975,2.844-3l.553-.553a.718.718,0,0,0,0-.79.614.614,0,0,0-.79-.237,8.633,8.633,0,0,0-1.185.632c-2.449,1.5-4.977,3.081-7.584,4.424-.79.395-1.659.79-2.449,1.185a6.662,6.662,0,0,1-1.9.553,4.4,4.4,0,0,1,1.027-1.817,13.086,13.086,0,0,1,4.582-3.476,4.687,4.687,0,0,1,2.054-.474c.316.079.316.158.316.4,0,.395-.316.79.237,1.027.237.158.632-.079.711-.316a2.306,2.306,0,0,0,.158-.711,1.324,1.324,0,0,0-.869-1.422,4.528,4.528,0,0,0-3.16.474,15.414,15.414,0,0,0-4.9,3.792,5.616,5.616,0,0,0-1.185,2.291,1,1,0,0,0,1.027,1.264c1.422.079,4.029-1.343,4.819-1.738C398-20.619,400.135-21.8,401.4-22.515Z" transform="translate(15.897 53.506)" fill="none" stroke="#c97e00" stroke-width="1"/>
</svg>
